<svg width="1280" height="800" viewBox="0 0 1280 800" fill="none" xmlns="http://www.w3.org/2000/svg">
  <defs>
    <linearGradient id="panel" x1="0" y1="0" x2="1280" y2="800" gradientUnits="userSpaceOnUse">
      <stop stop-color="#0e0f12"/>
      <stop offset="1" stop-color="#050506"/>
    </linearGradient>
    <linearGradient id="bar" x1="0" y1="0" x2="0" y2="1">
      <stop stop-color="#ffffff"/>
      <stop offset="1" stop-color="#8a8f96"/>
    </linearGradient>
  </defs>
  <rect width="1280" height="800" rx="24" fill="url(#panel)"/>
  <rect x="1" y="1" width="1278" height="798" rx="23" fill="none" stroke="#2b2d31" stroke-width="2"/>

  <!-- sidebar -->
  <rect x="24" y="24" width="220" height="752" rx="16" fill="#0a0b0d" stroke="#1f2125"/>
  <circle cx="56" cy="60" r="10" fill="#ffffff"/>
  <rect x="76" y="54" width="120" height="12" rx="6" fill="#3a3d42"/>
  <rect x="48" y="120" width="172" height="34" rx="8" fill="#16181c"/>
  <rect x="48" y="166" width="172" height="34" rx="8" fill="#16181c"/>
  <rect x="48" y="212" width="172" height="34" rx="8" fill="#16181c"/>
  <rect x="48" y="258" width="172" height="34" rx="8" fill="#16181c"/>

  <!-- topbar -->
  <rect x="268" y="24" width="988" height="64" rx="14" fill="#0a0b0d" stroke="#1f2125"/>
  <rect x="292" y="46" width="220" height="20" rx="10" fill="#3a3d42"/>
  <rect x="1140" y="40" width="92" height="32" rx="16" fill="#ffffff"/>

  <!-- KPI cards -->
  <g>
    <rect x="268" y="108" width="310" height="150" rx="16" fill="#0c0d10" stroke="#1f2125"/>
    <rect x="292" y="132" width="120" height="14" rx="7" fill="#33363b"/>
    <rect x="292" y="160" width="170" height="34" rx="8" fill="#ffffff"/>
    <rect x="292" y="210" width="220" height="12" rx="6" fill="#26282c"/>
  </g>
  <g>
    <rect x="606" y="108" width="310" height="150" rx="16" fill="#0c0d10" stroke="#1f2125"/>
    <rect x="630" y="132" width="120" height="14" rx="7" fill="#33363b"/>
    <rect x="630" y="160" width="150" height="34" rx="8" fill="#ffffff"/>
    <rect x="630" y="210" width="220" height="12" rx="6" fill="#26282c"/>
  </g>
  <g>
    <rect x="944" y="108" width="312" height="150" rx="16" fill="#0c0d10" stroke="#1f2125"/>
    <rect x="968" y="132" width="120" height="14" rx="7" fill="#33363b"/>
    <rect x="968" y="160" width="190" height="34" rx="8" fill="#ffffff"/>
    <rect x="968" y="210" width="220" height="12" rx="6" fill="#26282c"/>
  </g>

  <!-- main chart -->
  <rect x="268" y="280" width="620" height="496" rx="16" fill="#0c0d10" stroke="#1f2125"/>
  <rect x="292" y="306" width="180" height="16" rx="8" fill="#33363b"/>
  <g>
    <rect x="320" y="560" width="48" height="150" rx="8" fill="url(#bar)"/>
    <rect x="392" y="500" width="48" height="210" rx="8" fill="url(#bar)"/>
    <rect x="464" y="600" width="48" height="110" rx="8" fill="url(#bar)"/>
    <rect x="536" y="440" width="48" height="270" rx="8" fill="url(#bar)"/>
    <rect x="608" y="520" width="48" height="190" rx="8" fill="url(#bar)"/>
    <rect x="680" y="380" width="48" height="330" rx="8" fill="url(#bar)"/>
    <rect x="752" y="470" width="48" height="240" rx="8" fill="url(#bar)"/>
  </g>

  <!-- side chart (line/area) -->
  <rect x="912" y="280" width="344" height="496" rx="16" fill="#0c0d10" stroke="#1f2125"/>
  <rect x="936" y="306" width="160" height="16" rx="8" fill="#33363b"/>
  <path d="M936 620 L1000 560 L1064 590 L1128 470 L1200 520 L1232 430" fill="none" stroke="#ffffff" stroke-width="3" stroke-linecap="round" stroke-linejoin="round"/>
  <path d="M936 620 L1000 560 L1064 590 L1128 470 L1200 520 L1232 430 L1232 740 L936 740 Z" fill="#ffffff" opacity="0.06"/>
  <circle cx="1128" cy="470" r="6" fill="#ffffff"/>
</svg>
